<svg xmlns="http://www.w3.org/2000/svg" xmlns:xlink="http://www.w3.org/1999/xlink" contentStyleType="text/css" height="766px" preserveAspectRatio="none" style="width:2443px;height:766px;background:#FFFFFF;" version="1.1" viewBox="0 0 2443 766" width="2443px" zoomAndPan="magnify"><defs/><g><g id="User"><rect fill="#F1F1F1" height="36.2969" style="stroke:#181818;stroke-width:0.5;" width="51.9102" x="1903.92" y="115.67"/><text fill="#000000" font-family="sans-serif" font-size="14" lengthAdjust="spacing" textLength="31.9102" x="1913.92" y="138.6651">User</text></g><g id="User/id : Long"><ellipse cx="1617.8831" cy="30.3336" fill="#F1F1F1" rx="45.7931" ry="14.5236" style="stroke:#181818;stroke-width:0.5;"/><text fill="#000000" font-family="sans-serif" font-size="14" lengthAdjust="spacing" textLength="60.5186" x="1587.6238" y="34.8051">id : Long</text></g><g id="User/name : String"><ellipse cx="1763.8779" cy="30.3336" fill="#F1F1F1" rx="65.6179" ry="15.5236" style="stroke:#181818;stroke-width:0.5;"/><text fill="#000000" font-family="sans-serif" font-size="14" lengthAdjust="spacing" textLength="95.1016" x="1716.3271" y="33.8051">name : String</text></g><g id="User/email : String"><ellipse cx="1929.8836" cy="30.3307" fill="#F1F1F1" rx="65.2036" ry="15.4407" style="stroke:#181818;stroke-width:0.5;"/><text fill="#000000" font-family="sans-serif" font-size="14" lengthAdjust="spacing" textLength="94.0078" x="1882.8797" y="33.8851">email : String</text></g><g id="User/password : String"><ellipse cx="2106.8807" cy="30.3301" fill="#F1F1F1" rx="76.4007" ry="17.6801" style="stroke:#181818;stroke-width:0.5;"/><text fill="#000000" font-family="sans-serif" font-size="14" lengthAdjust="spacing" textLength="122.1104" x="2045.8255" y="31.6451">password : String</text></g><g id="User/parameter list is incomplete"><ellipse cx="2327.8784" cy="30.3337" fill="#F1F1F1" rx="109.6684" ry="24.3337" style="stroke:#181818;stroke-width:0.5;"/><text fill="#000000" font-family="sans-serif" font-size="14" lengthAdjust="spacing" textLength="197.1621" x="2229.2974" y="24.9951">parameter list is incomplete</text></g><g id="House"><rect fill="#F1F1F1" height="36.2969" style="stroke:#181818;stroke-width:0.5;" width="63.873" x="1501.94" y="322.63"/><text fill="#000000" font-family="sans-serif" font-size="14" lengthAdjust="spacing" textLength="43.873" x="1511.94" y="345.6251">House</text></g><g id="House/id : Long"><ellipse cx="1212.8831" cy="237.3036" fill="#F1F1F1" rx="45.7931" ry="14.5236" style="stroke:#181818;stroke-width:0.5;"/><text fill="#000000" font-family="sans-serif" font-size="14" lengthAdjust="spacing" textLength="60.5186" x="1182.6238" y="241.7751">id : Long</text></g><g id="House/user_id : Long"><ellipse cx="1360.8764" cy="237.2993" fill="#F1F1F1" rx="66.7464" ry="15.7493" style="stroke:#181818;stroke-width:0.5;"/><text fill="#000000" font-family="sans-serif" font-size="14" lengthAdjust="spacing" textLength="98.0547" x="1311.8491" y="240.5451">user_id : Long</text></g><g id="House/address : String"><ellipse cx="1533.8813" cy="237.2963" fill="#F1F1F1" rx="71.7313" ry="16.7463" style="stroke:#181818;stroke-width:0.5;"/><text fill="#000000" font-family="sans-serif" font-size="14" lengthAdjust="spacing" textLength="110.708" x="1478.5273" y="239.5451">address : String</text></g><g id="House/parameter list is incomplete"><ellipse cx="1749.8784" cy="237.3037" fill="#F1F1F1" rx="109.6684" ry="24.3337" style="stroke:#181818;stroke-width:0.5;"/><text fill="#000000" font-family="sans-serif" font-size="14" lengthAdjust="spacing" textLength="197.1621" x="1651.2974" y="231.9651">parameter list is incomplete</text></g><g id="Device"><rect fill="#F1F1F1" height="36.2969" style="stroke:#181818;stroke-width:0.5;" width="67.8789" x="1020.94" y="529.6"/><text fill="#000000" font-family="sans-serif" font-size="14" lengthAdjust="spacing" textLength="47.8789" x="1030.94" y="552.5951">Device</text></g><g id="Device/id : Long"><ellipse cx="647.8831" cy="444.2636" fill="#F1F1F1" rx="45.7931" ry="14.5236" style="stroke:#181818;stroke-width:0.5;"/><text fill="#000000" font-family="sans-serif" font-size="14" lengthAdjust="spacing" textLength="60.5186" x="617.6238" y="448.7351">id : Long</text></g><g id="Device/type_id : Long"><ellipse cx="795.8808" cy="444.2562" fill="#F1F1F1" rx="67.0308" ry="15.8062" style="stroke:#181818;stroke-width:0.5;"/><text fill="#000000" font-family="sans-serif" font-size="14" lengthAdjust="spacing" textLength="98.793" x="746.4843" y="447.4451">type_id : Long</text></g><g id="Device/house_id : Long"><ellipse cx="968.881" cy="444.2582" fill="#F1F1F1" rx="71.341" ry="16.6682" style="stroke:#181818;stroke-width:0.5;"/><text fill="#000000" font-family="sans-serif" font-size="14" lengthAdjust="spacing" textLength="109.7373" x="914.0124" y="446.5851">house_id : Long</text></g><g id="Device/status : String"><ellipse cx="1141.8759" cy="444.2572" fill="#F1F1F1" rx="66.8859" ry="15.7772" style="stroke:#181818;stroke-width:0.5;"/><text fill="#000000" font-family="sans-serif" font-size="14" lengthAdjust="spacing" textLength="98.417" x="1092.6674" y="447.4751">status : String</text></g><g id="Device/parameter list is incomplete"><ellipse cx="1353.8784" cy="444.2637" fill="#F1F1F1" rx="109.6684" ry="24.3337" style="stroke:#181818;stroke-width:0.5;"/><text fill="#000000" font-family="sans-serif" font-size="14" lengthAdjust="spacing" textLength="197.1621" x="1255.2974" y="438.9251">parameter list is incomplete</text></g><g id="DeviceState"><rect fill="#F1F1F1" height="36.2969" style="stroke:#181818;stroke-width:0.5;" width="104.9365" x="244.41" y="724.51"/><text fill="#000000" font-family="sans-serif" font-size="14" lengthAdjust="spacing" textLength="84.9365" x="254.41" y="747.5051">DeviceState</text></g><g id="DeviceState/deviceId : Long"><ellipse cx="363.885" cy="645.199" fill="#F1F1F1" rx="70.145" ry="16.429" style="stroke:#181818;stroke-width:0.5;"/><text fill="#000000" font-family="sans-serif" font-size="14" lengthAdjust="spacing" textLength="106.7432" x="310.5134" y="647.7651">deviceId : Long</text></g><g id="DeviceState/state : String"><ellipse cx="532.8843" cy="645.2049" fill="#F1F1F1" rx="64.0243" ry="15.2049" style="stroke:#181818;stroke-width:0.5;"/><text fill="#000000" font-family="sans-serif" font-size="14" lengthAdjust="spacing" textLength="90.8633" x="487.4526" y="648.9951">state : String</text></g><g id="DeviceState/timestamp : Long"><ellipse cx="82.879" cy="645.1958" fill="#F1F1F1" rx="76.879" ry="17.7758" style="stroke:#181818;stroke-width:0.5;"/><text fill="#000000" font-family="sans-serif" font-size="14" lengthAdjust="spacing" textLength="123.2588" x="21.2496" y="646.4151">timestamp : Long</text></g><g id="DeviceCmd"><rect fill="#F1F1F1" height="36.2969" style="stroke:#181818;stroke-width:0.5;" width="100.1787" x="929.79" y="724.51"/><text fill="#000000" font-family="sans-serif" font-size="14" lengthAdjust="spacing" textLength="80.1787" x="939.79" y="747.5051">DeviceCmd</text></g><g id="DeviceCmd/deviceId : Long"><ellipse cx="1188.885" cy="645.199" fill="#F1F1F1" rx="70.145" ry="16.429" style="stroke:#181818;stroke-width:0.5;"/><text fill="#000000" font-family="sans-serif" font-size="14" lengthAdjust="spacing" textLength="106.7432" x="1135.5134" y="647.7651">deviceId : Long</text></g><g id="DeviceCmd/eventType : String"><ellipse cx="711.8779" cy="645.1996" fill="#F1F1F1" rx="79.5479" ry="18.3096" style="stroke:#181818;stroke-width:0.5;"/><text fill="#000000" font-family="sans-serif" font-size="14" lengthAdjust="spacing" textLength="129.6094" x="647.0732" y="645.8851">eventType : String</text></g><g id="DeviceCmd/eventData : String"><ellipse cx="905.8834" cy="645.2027" fill="#F1F1F1" rx="79.1634" ry="18.2327" style="stroke:#181818;stroke-width:0.5;"/><text fill="#000000" font-family="sans-serif" font-size="14" lengthAdjust="spacing" textLength="128.7002" x="841.5333" y="645.9651">eventData : String</text></g><g id="DeviceTelemetry"><rect fill="#F1F1F1" height="36.2969" style="stroke:#181818;stroke-width:0.5;" width="139.3281" x="1560.21" y="724.51"/><text fill="#000000" font-family="sans-serif" font-size="14" lengthAdjust="spacing" textLength="119.3281" x="1570.21" y="747.5051">DeviceTelemetry</text></g><g id="DeviceTelemetry/deviceId : Long"><ellipse cx="1363.885" cy="645.199" fill="#F1F1F1" rx="70.145" ry="16.429" style="stroke:#181818;stroke-width:0.5;"/><text fill="#000000" font-family="sans-serif" font-size="14" lengthAdjust="spacing" textLength="106.7432" x="1310.5134" y="647.7651">deviceId : Long</text></g><g id="DeviceTelemetry/dataUrl : String"><ellipse cx="1538.8776" cy="645.1955" fill="#F1F1F1" rx="70.1776" ry="16.4355" style="stroke:#181818;stroke-width:0.5;"/><text fill="#000000" font-family="sans-serif" font-size="14" lengthAdjust="spacing" textLength="106.8252" x="1485.465" y="647.7551">dataUrl : String</text></g><g id="DeviceTelemetry/timestamp : Long"><ellipse cx="1720.879" cy="645.1958" fill="#F1F1F1" rx="76.879" ry="17.7758" style="stroke:#181818;stroke-width:0.5;"/><text fill="#000000" font-family="sans-serif" font-size="14" lengthAdjust="spacing" textLength="123.2588" x="1659.2496" y="646.4151">timestamp : Long</text></g><!--link User/id : Long to User--><g id="link_User/id : Long_User"><path d="M1646,42.09 C1656.85,46.16 1669.4,50.74 1680.88,54.67 C1761.48,82.22 1857.98,111.45 1903.57,125.04 " fill="none" id="User/id : Long-User" style="stroke:#181818;stroke-width:1.0;"/></g><!--link User/name : String to User--><g id="link_User/name : String_User"><path d="M1786.61,45.23 C1817.16,63.91 1871.33,97.02 1903.59,116.75 " fill="none" id="User/name : String-User" style="stroke:#181818;stroke-width:1.0;"/></g><!--link User/email : String to User--><g id="link_User/email : String_User"><path d="M1929.88,45.87 C1929.88,64.18 1929.88,95.6 1929.88,115.24 " fill="none" id="User/email : String-User" style="stroke:#181818;stroke-width:1.0;"/></g><!--link User/password : String to User--><g id="link_User/password : String_User"><path d="M2079.22,47.19 C2045.58,66.48 1989.21,98.8 1956.19,117.73 " fill="none" id="User/password : String-User" style="stroke:#181818;stroke-width:1.0;"/></g><!--link User/parameter list is incomplete to User--><g id="link_User/parameter list is incomplete_User"><path d="M2257.18,49.36 C2167.39,72.26 2016.82,110.65 1956.28,126.09 " fill="none" id="User/parameter list is incomplete-User" style="stroke:#181818;stroke-width:1.0;"/></g><!--link House/id : Long to House--><g id="link_House/id : Long_House"><path d="M1241.44,249.09 C1252.46,253.15 1265.21,257.74 1276.88,261.63 C1357.16,288.45 1452.79,316.52 1501.65,330.59 " fill="none" id="House/id : Long-House" style="stroke:#181818;stroke-width:1.0;"/></g><!--link House/user_id : Long to House--><g id="link_House/user_id : Long_House"><path d="M1384.93,252.41 C1416.04,270.65 1470.2,302.43 1503.94,322.22 " fill="none" id="House/user_id : Long-House" style="stroke:#181818;stroke-width:1.0;"/></g><!--link House/address : String to House--><g id="link_House/address : String_House"><path d="M1533.88,254.16 C1533.88,272.66 1533.88,303.17 1533.88,322.34 " fill="none" id="House/address : String-House" style="stroke:#181818;stroke-width:1.0;"/></g><!--link House/parameter list is incomplete to House--><g id="link_House/parameter list is incomplete_House"><path d="M1704.07,259.82 C1662.71,279.25 1602.89,307.36 1566.29,324.55 " fill="none" id="House/parameter list is incomplete-House" style="stroke:#181818;stroke-width:1.0;"/></g><!--link Device/id : Long to Device--><g id="link_Device/id : Long_Device"><path d="M675.21,456.28 C686.19,460.47 699.03,465.07 710.88,468.6 C822.71,501.85 958.59,528.89 1020.81,540.55 " fill="none" id="Device/id : Long-Device" style="stroke:#181818;stroke-width:1.0;"/></g><!--link Device/type_id : Long to Device--><g id="link_Device/type_id : Long_Device"><path d="M829.21,458.32 C878.53,477.65 970.49,513.68 1020.44,533.25 " fill="none" id="Device/type_id : Long-Device" style="stroke:#181818;stroke-width:1.0;"/></g><!--link Device/house_id : Long to Device--><g id="link_Device/house_id : Long_Device"><path d="M982.32,461.12 C998,479.63 1023.85,510.14 1040.1,529.3 " fill="none" id="Device/house_id : Long-Device" style="stroke:#181818;stroke-width:1.0;"/></g><!--link Device/status : String to Device--><g id="link_Device/status : String_Device"><path d="M1129.04,460.24 C1113.25,478.65 1086.5,509.86 1069.81,529.33 " fill="none" id="Device/status : String-Device" style="stroke:#181818;stroke-width:1.0;"/></g><!--link Device/parameter list is incomplete to Device--><g id="link_Device/parameter list is incomplete_Device"><path d="M1295.16,465.19 C1233.77,486.03 1139.5,518.03 1089.23,535.09 " fill="none" id="Device/parameter list is incomplete-Device" style="stroke:#181818;stroke-width:1.0;"/></g><!--link DeviceState/deviceId : Long to DeviceState--><g id="link_DeviceState/deviceId : Long_DeviceState"><path d="M353.11,661.54 C341.13,678.62 321.79,706.17 309.21,724.09 " fill="none" id="DeviceState/deviceId : Long-DeviceState" style="stroke:#181818;stroke-width:1.0;"/></g><!--link DeviceState/state : String to DeviceState--><g id="link_DeviceState/state : String_DeviceState"><path d="M501.54,658.88 C460.16,675.62 387.1,705.17 340.39,724.06 " fill="none" id="DeviceState/state : String-DeviceState" style="stroke:#181818;stroke-width:1.0;"/></g><!--link DeviceState/timestamp : Long to DeviceState--><g id="link_DeviceState/timestamp : Long_DeviceState"><path d="M117.26,661.54 C155.54,678.62 217.3,706.17 257.5,724.09 " fill="none" id="DeviceState/timestamp : Long-DeviceState" style="stroke:#181818;stroke-width:1.0;"/></g><!--link DeviceCmd/deviceId : Long to DeviceCmd--><g id="link_DeviceCmd/deviceId : Long_DeviceCmd"><path d="M1158.04,660.29 C1120.91,677.25 1058.54,705.74 1018.31,724.11 " fill="none" id="DeviceCmd/deviceId : Long-DeviceCmd" style="stroke:#181818;stroke-width:1.0;"/></g><!--link DeviceCmd/eventType : String to DeviceCmd--><g id="link_DeviceCmd/eventType : String_DeviceCmd"><path d="M753.75,661.12 C801.6,678.16 879.82,706.02 930.57,724.1 " fill="none" id="DeviceCmd/eventType : String-DeviceCmd" style="stroke:#181818;stroke-width:1.0;"/></g><!--link DeviceCmd/eventData : String to DeviceCmd--><g id="link_DeviceCmd/eventData : String_DeviceCmd"><path d="M919.11,663.27 C932.41,680.43 952.82,706.76 966.26,724.1 " fill="none" id="DeviceCmd/eventData : String-DeviceCmd" style="stroke:#181818;stroke-width:1.0;"/></g><!--link DeviceTelemetry/deviceId : Long to DeviceTelemetry--><g id="link_DeviceTelemetry/deviceId : Long_DeviceTelemetry"><path d="M1401.15,659.58 C1448.19,676.46 1529.22,705.54 1581.13,724.17 " fill="none" id="DeviceTelemetry/deviceId : Long-DeviceTelemetry" style="stroke:#181818;stroke-width:1.0;"/></g><!--link DeviceTelemetry/dataUrl : String to DeviceTelemetry--><g id="link_DeviceTelemetry/dataUrl : String_DeviceTelemetry"><path d="M1553.5,661.54 C1569.78,678.62 1596.04,706.17 1613.13,724.09 " fill="none" id="DeviceTelemetry/dataUrl : String-DeviceTelemetry" style="stroke:#181818;stroke-width:1.0;"/></g><!--link DeviceTelemetry/timestamp : Long to DeviceTelemetry--><g id="link_DeviceTelemetry/timestamp : Long_DeviceTelemetry"><path d="M1705.03,662.83 C1688.63,680.03 1663.14,706.78 1646.47,724.26 " fill="none" id="DeviceTelemetry/timestamp : Long-DeviceTelemetry" style="stroke:#181818;stroke-width:1.0;"/></g><!--link User to House--><g id="link_User_House"><path d="M1927.7,152.11 C1923.29,179.64 1910.66,233.21 1876.88,261.63 C1829.5,301.49 1642.02,327.23 1566.08,336.22 " fill="none" id="User-House" style="stroke:#181818;stroke-width:1.0;"/><text fill="#000000" font-family="sans-serif" font-size="11" lengthAdjust="spacing" textLength="26.0767" x="1911.88" y="241.5104">(1,1)</text></g><!--link House to Device--><g id="link_House_Device"><path d="M1531.84,359.24 C1527.63,387.01 1515.26,440.9 1480.88,468.6 C1420.28,517.42 1179.15,538.38 1089.06,544.62 " fill="none" id="House-Device" style="stroke:#181818;stroke-width:1.0;"/><text fill="#000000" font-family="sans-serif" font-size="11" lengthAdjust="spacing" textLength="27.3066" x="1516.88" y="448.4704">(1,N)</text></g><!--link Device to DeviceState--><g id="link_Device_DeviceState"><path d="M1020.69,549.41 C873.61,552.6 299.69,568.72 246.88,626.89 C220.87,655.54 255.21,699.83 278.54,724.17 " fill="none" id="Device-DeviceState" style="stroke:#181818;stroke-width:1.0;"/><text fill="#000000" font-family="sans-serif" font-size="11" lengthAdjust="spacing" textLength="27.3066" x="247.88" y="649.4104">(1,N)</text></g><!--link Device to DeviceCmd--><g id="link_Device_DeviceCmd"><path d="M1048.09,566.21 C1033.85,602.84 1000.98,687.38 986.71,724.1 " fill="none" id="Device-DeviceCmd" style="stroke:#181818;stroke-width:1.0;"/><text fill="#000000" font-family="sans-serif" font-size="11" lengthAdjust="spacing" textLength="27.3066" x="1024.88" y="649.4104">(1,N)</text></g><!--link Device to DeviceTelemetry--><g id="link_Device_DeviceTelemetry"><path d="M1088.93,549.62 C1230.25,553.61 1765.56,572.24 1814.88,626.89 C1856.53,673.05 1768.27,707.28 1699.85,725.85 " fill="none" id="Device-DeviceTelemetry" style="stroke:#181818;stroke-width:1.0;"/><text fill="#000000" font-family="sans-serif" font-size="11" lengthAdjust="spacing" textLength="27.3066" x="1826.88" y="649.4104">(1,N)</text></g><!--SRC=[fPBBRi8m44Nt_efPWbHGeQX2h52XBmejQWZRoiHJi9hOaUq4HLN_lPCGG8I8HPjDv3FZU-VXeNNSk6232j0mXif9bu5lqS0t0_gaW05CjLeN9yKZfBFdZ2m9Hbo6foZcrcwr4LLgwB8ZuL1Q1zA2L86Euf0O-pbOF-d4OgqtSVDnYhWG1gtzaz4OKndKExainehJ9Y-hmcXqBlcFkKS2-mf4GPxF32hZTZ92mb5Svi6Pw2WI5oGnfUG5zLVPOex7tF4ZhkekC4Jgp6GNr0Kf-2QyN7AkN3omLgDprMcsofMptI-7hmHtfgpSqYajvbOVekxh0uVo6HkY4lcBPsmUSkNysHHID5Pg1PrszxhRQ_TNwFXDmrTVIcyLv0kK8HQTD5dZSJu5gnD37eAMREGgSNIvoIOyvV2Ug3nl06yngiduPG_WNgNIQ1NHLDbaEJictFPQTzA1XuRAWEMC6lZaIUZeHg05ZN40_kAXrMTJhjO9NvCs5J_If6ioYdc_]--></g></svg>